<?xml version="1.0" encoding="UTF-8"?>
<svg id="Capa_2" data-name="Capa 2" xmlns="http://www.w3.org/2000/svg" xmlns:xlink="http://www.w3.org/1999/xlink" viewBox="0 0 466 466">
  <defs>
    <style>
      .cls-1 {
        fill: #009a6b;
      }

      .cls-1, .cls-2, .cls-3 {
        stroke-width: 0px;
      }

      .cls-2 {
        fill: none;
      }

      .cls-4 {
        filter: url(#drop-shadow-1);
      }

      .cls-3 {
        fill: #f4dfb9;
      }
    </style>
    <filter id="drop-shadow-1" filterUnits="userSpaceOnUse">
      <feOffset dx="0" dy="13"/>
      <feGaussianBlur result="blur" stdDeviation="8"/>
      <feFlood flood-color="#2b2b2b" flood-opacity=".75"/>
      <feComposite in2="blur" operator="in"/>
      <feComposite in="SourceGraphic"/>
    </filter>
  </defs>
  <g id="Capa_1-2" data-name="Capa 1">
    <rect class="cls-2" width="466" height="466"/>
    <g class="cls-4">
      <path class="cls-1" d="M377.21,177.44c-6.38,0-12.51,1.09-18.22,3.07-20.54-49.09-69.03-83.58-125.57-83.58s-105.19,34.61-125.67,83.83c-5.91-2.15-12.29-3.32-18.95-3.32-30.68,0-55.56,24.87-55.56,55.56s24.87,55.56,55.56,55.56c6.65,0,13.03-1.17,18.95-3.32,20.48,49.22,69.03,83.83,125.67,83.83s105.03-34.49,125.57-83.58c5.71,1.98,11.84,3.07,18.22,3.07,30.68,0,55.56-24.87,55.56-55.56s-24.87-55.56-55.56-55.56Z"/>
      <path class="cls-3" d="M376.71,170.54c-4.8,0-9.55.55-14.19,1.63-23.51-49.94-73.52-81.87-129.11-81.87s-105.71,31.99-129.19,82.04c-4.87-1.2-9.87-1.8-14.94-1.8-34.44,0-62.46,28.02-62.46,62.46s28.02,62.46,62.46,62.46c5.07,0,10.07-.6,14.94-1.8,23.48,50.04,73.51,82.04,129.19,82.04s105.6-31.93,129.11-81.87c4.64,1.08,9.39,1.63,14.19,1.63,34.44,0,62.46-28.02,62.46-62.46s-28.02-62.46-62.46-62.46ZM376.71,281.28c-5.4,0-10.73-.9-15.83-2.67l-6.29-2.18-2.57,6.14c-20.07,47.96-66.62,78.95-118.6,78.95s-98.68-31.08-118.7-79.18l-2.6-6.25-6.36,2.31c-5.27,1.91-10.81,2.88-16.47,2.88-26.62,0-48.28-21.66-48.28-48.28s21.66-48.28,48.28-48.28c5.65,0,11.19.97,16.47,2.88l6.36,2.31,2.6-6.25c20.02-48.1,66.61-79.18,118.7-79.18s98.53,30.99,118.6,78.95l2.57,6.14,6.29-2.18c5.11-1.77,10.43-2.67,15.83-2.67,26.62,0,48.28,21.66,48.28,48.28s-21.66,48.28-48.28,48.28Z"/>
      <g>
        <path class="cls-3" d="M70.75,231.58c0-10.79,8.29-18.52,19.44-18.52,6.19,0,11.35,2.25,14.73,6.34l-5.32,4.91c-2.4-2.76-5.42-4.19-9-4.19-6.7,0-11.46,4.71-11.46,11.46s4.76,11.46,11.46,11.46c3.58,0,6.6-1.43,9-4.25l5.32,4.91c-3.38,4.14-8.54,6.39-14.78,6.39-11.1,0-19.38-7.72-19.38-18.52Z"/>
        <path class="cls-3" d="M109.98,231.58c0-10.64,8.29-18.52,19.59-18.52s19.59,7.83,19.59,18.52-8.34,18.52-19.59,18.52-19.59-7.88-19.59-18.52ZM140.77,231.58c0-6.8-4.81-11.46-11.2-11.46s-11.2,4.65-11.2,11.46,4.81,11.46,11.2,11.46,11.2-4.65,11.2-11.46Z"/>
        <path class="cls-3" d="M190.49,249.48l-.05-21.48-10.54,17.7h-3.73l-10.49-17.24v21.02h-7.77v-35.8h6.85l13.4,22.25,13.2-22.25h6.8l.1,35.8h-7.77Z"/>
        <path class="cls-3" d="M236.98,242.83v6.65h-27.72v-35.8h27.06v6.65h-18.82v7.77h16.62v6.45h-16.62v8.29h19.49Z"/>
        <path class="cls-3" d="M278.92,213.68v35.8h-6.8l-17.85-21.74v21.74h-8.18v-35.8h6.85l17.8,21.74v-21.74h8.18Z"/>
        <path class="cls-3" d="M318.92,242.73v6.75h-31.3v-5.37l19.64-23.68h-19.23v-6.75h30.13v5.37l-19.59,23.68h20.36Z"/>
        <path class="cls-3" d="M350.33,241.81h-16.62l-3.17,7.67h-8.49l15.96-35.8h8.18l16.01,35.8h-8.7l-3.17-7.67ZM347.72,235.52l-5.68-13.71-5.68,13.71h11.35Z"/>
        <path class="cls-3" d="M391.24,249.48l-6.9-9.97h-7.62v9.97h-8.29v-35.8h15.5c9.56,0,15.55,4.96,15.55,12.99,0,5.37-2.71,9.31-7.37,11.3l8.03,11.51h-8.9ZM383.47,220.43h-6.75v12.48h6.75c5.06,0,7.62-2.35,7.62-6.24s-2.56-6.24-7.62-6.24Z"/>
      </g>
    </g>
    <g>
      <path class="cls-3" d="M266.91,151.7c-.75-.86-1.41-2.14-1.44-3.25-.14-5.86-.14-11.73-.03-17.59.05-2.59-.95-3.66-3.56-3.6-4.67.11-9.34.1-14,0-2.27-.05-3.78.57-3.88,3.57-2.61-2.36-4.93-4.47-7.27-6.56-2.93-2.63-4.52-2.67-7.35-.1-11.64,10.6-23.28,21.2-34.88,31.84-.85.78-1.47,1.83-2.19,2.76v2.2c2.19,4.3,6.41,2.33,10.11,3.14v2.95c0,9.53,0,19.07,0,28.6,0,3.58.35,3.92,3.96,3.93,5.68.01,11.36.02,17.03,0,3.24-.01,3.59-.38,3.59-3.7.01-6.14,0-12.28,0-18.66h11.99c0,6.06,0,12.09,0,18.11,0,4.08.16,4.25,4.15,4.25,5.59,0,11.17.01,16.76,0,3.22-.01,3.67-.44,3.68-3.65.02-9.53,0-19.07,0-28.6v-3.12c3.47-1.11,7.94,1.21,10.11-3.24v-2.2c-2.28-2.35-4.63-4.63-6.79-7.08ZM267.31,159.22c-1.59,0-3.18-.02-4.77,0-3.05.04-3.68.64-3.68,3.72-.02,9.63,0,19.25,0,28.88v3.03h-15.17c-.05-.91-.13-1.78-.13-2.65-.01-5.41-.09-10.82.03-16.23.06-2.55-.8-3.72-3.47-3.66-4.76.11-9.53.09-14.29,0-2.46-.04-3.46.92-3.41,3.43.11,5.41.04,10.82.03,16.23,0,.89-.08,1.78-.13,2.83h-15.18v-3.87c0-9.17,0-18.34,0-27.5,0-3.83-.4-4.21-4.29-4.22-1.34,0-2.69,0-4.93,0,12.04-10.99,23.47-21.42,35.06-31.99,3.59,3.26,6.96,6.47,10.52,9.46,1.06.89,2.63,1.17,3.97,1.73.45-1.3.96-2.57,1.32-3.89.19-.69.1-1.44.14-2.4h11.8c0,4.3.34,8.61-.09,12.85-.53,5.31.71,9.52,5.42,12.38.55.33,1.09.68,1.64,1.01-.13.29-.26.57-.4.86Z"/>
      <path class="cls-3" d="M243.83,148.62c-.2-.08-.44-.09-.66-.09-2.81,0-5.61,0-8.42-.01-.15,0-.3,0-.49,0,.21-.67.39-1.26.58-1.85,1.1-3.46,2.2-6.92,3.29-10.39.07-.23.1-.5.05-.73-.1-.47-.47-.69-.91-.78-.47-.09-.8.14-1.07.52-2.85,3.93-5.7,7.86-8.55,11.79-1.9,2.61-3.8,5.22-5.68,7.85-.19.26-.31.63-.3.94.01.51.47.82,1.08.82,2.55.04,5.11.07,7.66.1.37,0,.73,0,1.14,0-.05.19-.08.3-.11.42-.5,1.59-1,3.17-1.5,4.76-.75,2.37-1.5,4.74-2.24,7.1-.2.63-.04,1.07.48,1.35.57.31,1.04.19,1.47-.39,4-5.45,8-10.9,12-16.36.85-1.15,1.69-2.3,2.54-3.46.45-.61.29-1.35-.34-1.59Z"/>
    </g>
    <g>
      <path class="cls-3" d="M127.89,286.19c0-3.89,3-6.65,7.2-6.65,2.71,0,4.85,1.18,5.78,3.29l-2.9,1.56c-.7-1.22-1.73-1.78-2.9-1.78-1.9,0-3.38,1.32-3.38,3.58s1.49,3.58,3.38,3.58c1.18,0,2.21-.53,2.9-1.78l2.9,1.58c-.94,2.06-3.07,3.26-5.78,3.26-4.2,0-7.2-2.76-7.2-6.65Z"/>
      <path class="cls-3" d="M154.46,285.28v7.37h-3.5v-1.61c-.7,1.18-2.04,1.8-3.94,1.8-3.02,0-4.83-1.68-4.83-3.91s1.61-3.86,5.54-3.86h2.98c0-1.61-.96-2.54-2.98-2.54-1.37,0-2.78.46-3.72,1.2l-1.34-2.62c1.42-1.01,3.5-1.56,5.57-1.56,3.94,0,6.22,1.82,6.22,5.74ZM150.72,288.57v-1.32h-2.57c-1.75,0-2.3.65-2.3,1.51,0,.94.79,1.56,2.11,1.56,1.25,0,2.33-.58,2.76-1.75ZM149.37,278.08h-2.93l3.24-3.46h4.03l-4.34,3.46Z"/>
      <path class="cls-3" d="M157.84,274.84h3.74v17.81h-3.74v-17.81Z"/>
      <path class="cls-3" d="M164.11,286.19c0-3.89,3-6.65,7.2-6.65,2.71,0,4.85,1.18,5.78,3.29l-2.9,1.56c-.7-1.22-1.73-1.78-2.9-1.78-1.9,0-3.38,1.32-3.38,3.58s1.49,3.58,3.38,3.58c1.18,0,2.21-.53,2.9-1.78l2.9,1.58c-.94,2.06-3.07,3.26-5.78,3.26-4.2,0-7.2-2.76-7.2-6.65Z"/>
      <path class="cls-3" d="M192.26,279.73v12.91h-3.55v-1.54c-.98,1.13-2.42,1.73-4.01,1.73-3.24,0-5.52-1.82-5.52-5.81v-7.3h3.74v6.74c0,2.16.96,3.12,2.62,3.12s2.98-1.1,2.98-3.48v-6.38h3.74Z"/>
      <path class="cls-3" d="M195.74,274.84h3.74v17.81h-3.74v-17.81Z"/>
      <path class="cls-3" d="M202,286.19c0-3.89,3-6.65,7.11-6.65s7.08,2.76,7.08,6.65-2.98,6.65-7.08,6.65-7.11-2.76-7.11-6.65ZM212.4,286.19c0-2.23-1.42-3.58-3.29-3.58s-3.31,1.34-3.31,3.58,1.44,3.58,3.31,3.58,3.29-1.34,3.29-3.58Z"/>
      <path class="cls-3" d="M238.63,274.84v17.81h-3.58v-1.49c-.94,1.13-2.3,1.68-4.03,1.68-3.65,0-6.46-2.59-6.46-6.65s2.81-6.65,6.46-6.65c1.58,0,2.93.5,3.86,1.56v-6.26h3.74ZM234.96,286.19c0-2.23-1.44-3.58-3.29-3.58s-3.31,1.34-3.31,3.58,1.44,3.58,3.31,3.58,3.29-1.34,3.29-3.58Z"/>
      <path class="cls-3" d="M254.66,287.25h-9.77c.36,1.61,1.73,2.59,3.7,2.59,1.37,0,2.35-.41,3.24-1.25l1.99,2.16c-1.2,1.37-3,2.09-5.33,2.09-4.46,0-7.37-2.81-7.37-6.65s2.95-6.65,6.89-6.65,6.72,2.54,6.72,6.7c0,.29-.05.7-.07,1.01ZM244.84,285.06h6.36c-.26-1.63-1.49-2.69-3.17-2.69s-2.93,1.03-3.19,2.69Z"/>
      <path class="cls-3" d="M277.22,285.25v7.39h-3.75v-6.82c0-2.09-.96-3.05-2.62-3.05-1.8,0-3.1,1.1-3.1,3.48v6.38h-3.74v-17.81h3.74v6.24c1.01-1.01,2.45-1.54,4.1-1.54,3.05,0,5.35,1.78,5.35,5.71Z"/>
      <path class="cls-3" d="M293.61,279.73v12.91h-3.55v-1.54c-.98,1.13-2.42,1.73-4.01,1.73-3.24,0-5.52-1.82-5.52-5.81v-7.3h3.74v6.74c0,2.16.96,3.12,2.62,3.12s2.98-1.1,2.98-3.48v-6.38h3.74Z"/>
      <path class="cls-3" d="M309.67,287.25h-9.77c.36,1.61,1.73,2.59,3.7,2.59,1.37,0,2.35-.41,3.24-1.25l1.99,2.16c-1.2,1.37-3,2.09-5.33,2.09-4.46,0-7.37-2.81-7.37-6.65s2.95-6.65,6.89-6.65,6.72,2.54,6.72,6.7c0,.29-.05.7-.07,1.01ZM299.85,285.06h6.36c-.26-1.63-1.49-2.69-3.17-2.69s-2.93,1.03-3.19,2.69Z"/>
      <path class="cls-3" d="M312.23,274.84h3.74v17.81h-3.74v-17.81Z"/>
      <path class="cls-3" d="M319.46,274.84h3.74v17.81h-3.74v-17.81Z"/>
      <path class="cls-3" d="M338.11,285.28v7.37h-3.5v-1.61c-.7,1.18-2.04,1.8-3.94,1.8-3.02,0-4.83-1.68-4.83-3.91s1.61-3.86,5.54-3.86h2.98c0-1.61-.96-2.54-2.98-2.54-1.37,0-2.78.46-3.72,1.2l-1.34-2.62c1.42-1.01,3.5-1.56,5.57-1.56,3.94,0,6.22,1.82,6.22,5.74ZM334.36,288.57v-1.32h-2.57c-1.75,0-2.3.65-2.3,1.51,0,.94.79,1.56,2.11,1.56,1.25,0,2.33-.58,2.76-1.75Z"/>
      <path class="cls-3" d="M198.09,314.99c0,4.06-2.81,6.65-6.43,6.65-1.61,0-2.93-.5-3.89-1.56v6.02h-3.74v-17.57h3.58v1.49c.94-1.13,2.33-1.68,4.06-1.68,3.62,0,6.43,2.59,6.43,6.65ZM194.3,314.99c0-2.23-1.42-3.58-3.29-3.58s-3.29,1.34-3.29,3.58,1.42,3.58,3.29,3.58,3.29-1.34,3.29-3.58Z"/>
      <path class="cls-3" d="M213.16,316.05h-9.77c.36,1.61,1.73,2.59,3.7,2.59,1.37,0,2.35-.41,3.24-1.25l1.99,2.16c-1.2,1.37-3,2.09-5.33,2.09-4.46,0-7.37-2.81-7.37-6.65s2.95-6.65,6.89-6.65,6.72,2.54,6.72,6.7c0,.29-.05.7-.07,1.01ZM203.35,313.86h6.36c-.26-1.63-1.49-2.69-3.17-2.69s-2.93,1.03-3.19,2.69Z"/>
      <path class="cls-3" d="M223.75,308.34v3.46c-.31-.02-.55-.05-.84-.05-2.06,0-3.43,1.13-3.43,3.6v6.1h-3.74v-12.91h3.58v1.7c.91-1.25,2.45-1.9,4.44-1.9Z"/>
      <path class="cls-3" d="M224.78,320.25l1.25-2.69c1.15.74,2.9,1.25,4.49,1.25,1.73,0,2.38-.46,2.38-1.18,0-2.11-7.8.05-7.8-5.11,0-2.45,2.21-4.18,5.98-4.18,1.78,0,3.74.41,4.97,1.13l-1.25,2.66c-1.27-.72-2.54-.96-3.72-.96-1.68,0-2.4.53-2.4,1.2,0,2.21,7.8.07,7.8,5.16,0,2.4-2.23,4.1-6.1,4.1-2.18,0-4.39-.6-5.59-1.39Z"/>
      <path class="cls-3" d="M237.81,314.99c0-3.89,3-6.65,7.1-6.65s7.08,2.76,7.08,6.65-2.98,6.65-7.08,6.65-7.1-2.76-7.1-6.65ZM248.2,314.99c0-2.23-1.42-3.58-3.29-3.58s-3.31,1.34-3.31,3.58,1.44,3.58,3.31,3.58,3.29-1.34,3.29-3.58Z"/>
      <path class="cls-3" d="M267.69,314.05v7.39h-3.75v-6.82c0-2.09-.96-3.05-2.62-3.05-1.8,0-3.1,1.1-3.1,3.48v6.38h-3.74v-12.91h3.58v1.51c1.01-1.1,2.52-1.7,4.27-1.7,3.05,0,5.35,1.78,5.35,5.71Z"/>
      <path class="cls-3" d="M282.5,314.08v7.37h-3.5v-1.61c-.7,1.18-2.04,1.8-3.94,1.8-3.02,0-4.83-1.68-4.83-3.91s1.61-3.86,5.54-3.86h2.98c0-1.61-.96-2.54-2.98-2.54-1.37,0-2.78.46-3.72,1.2l-1.34-2.62c1.42-1.01,3.5-1.56,5.57-1.56,3.94,0,6.22,1.82,6.22,5.74ZM278.76,317.37v-1.32h-2.57c-1.75,0-2.3.65-2.3,1.51,0,.94.79,1.56,2.11,1.56,1.25,0,2.33-.58,2.76-1.75Z"/>
      <path class="cls-3" d="M285.88,303.64h3.74v17.81h-3.74v-17.81Z"/>
    </g>
  </g>
</svg>