<?xml version="1.0" encoding="UTF-8"?>
<svg id="Capa_2" data-name="Capa 2" xmlns="http://www.w3.org/2000/svg" xmlns:xlink="http://www.w3.org/1999/xlink" viewBox="0 0 466 466">
  <defs>
    <style>
      .cls-1 {
        fill: #009a6b;
      }

      .cls-1, .cls-2, .cls-3 {
        stroke-width: 0px;
      }

      .cls-2 {
        fill: none;
      }

      .cls-4 {
        filter: url(#drop-shadow-1);
      }

      .cls-3 {
        fill: #f4dfb9;
      }
    </style>
    <filter id="drop-shadow-1" filterUnits="userSpaceOnUse">
      <feOffset dx="0" dy="13"/>
      <feGaussianBlur result="blur" stdDeviation="8"/>
      <feFlood flood-color="#2b2b2b" flood-opacity=".75"/>
      <feComposite in2="blur" operator="in"/>
      <feComposite in="SourceGraphic"/>
    </filter>
  </defs>
  <g id="Capa_1-2" data-name="Capa 1">
    <rect class="cls-2" width="466" height="466"/>
    <g class="cls-4">
      <path class="cls-1" d="M377.21,177.44c-6.38,0-12.51,1.09-18.22,3.07-20.54-49.09-69.03-83.58-125.57-83.58s-105.19,34.61-125.67,83.83c-5.91-2.15-12.29-3.32-18.95-3.32-30.68,0-55.56,24.87-55.56,55.56s24.87,55.56,55.56,55.56c6.65,0,13.03-1.17,18.95-3.32,20.48,49.22,69.03,83.83,125.67,83.83s105.03-34.49,125.57-83.58c5.71,1.98,11.84,3.07,18.22,3.07,30.68,0,55.56-24.87,55.56-55.56s-24.87-55.56-55.56-55.56Z"/>
      <path class="cls-3" d="M376.71,170.54c-4.8,0-9.55.55-14.19,1.63-23.51-49.94-73.52-81.87-129.11-81.87s-105.71,31.99-129.19,82.04c-4.87-1.2-9.87-1.8-14.94-1.8-34.44,0-62.46,28.02-62.46,62.46s28.02,62.46,62.46,62.46c5.07,0,10.07-.6,14.94-1.8,23.48,50.04,73.51,82.04,129.19,82.04s105.6-31.93,129.11-81.87c4.64,1.08,9.39,1.63,14.19,1.63,34.44,0,62.46-28.02,62.46-62.46s-28.02-62.46-62.46-62.46ZM376.71,281.28c-5.4,0-10.73-.9-15.83-2.67l-6.29-2.18-2.57,6.14c-20.07,47.96-66.62,78.95-118.6,78.95s-98.68-31.08-118.7-79.18l-2.6-6.25-6.36,2.31c-5.27,1.91-10.81,2.88-16.47,2.88-26.62,0-48.28-21.66-48.28-48.28s21.66-48.28,48.28-48.28c5.65,0,11.19.97,16.47,2.88l6.36,2.31,2.6-6.25c20.02-48.1,66.61-79.18,118.7-79.18s98.53,30.99,118.6,78.95l2.57,6.14,6.29-2.18c5.11-1.77,10.43-2.67,15.83-2.67,26.62,0,48.28,21.66,48.28,48.28s-21.66,48.28-48.28,48.28Z"/>
      <g>
        <path class="cls-3" d="M70.75,231.58c0-10.79,8.29-18.52,19.44-18.52,6.19,0,11.35,2.25,14.73,6.34l-5.32,4.91c-2.4-2.76-5.42-4.19-9-4.19-6.7,0-11.46,4.71-11.46,11.46s4.76,11.46,11.46,11.46c3.58,0,6.6-1.43,9-4.25l5.32,4.91c-3.38,4.14-8.54,6.39-14.78,6.39-11.1,0-19.38-7.72-19.38-18.52Z"/>
        <path class="cls-3" d="M109.98,231.58c0-10.64,8.29-18.52,19.59-18.52s19.59,7.83,19.59,18.52-8.34,18.52-19.59,18.52-19.59-7.88-19.59-18.52ZM140.77,231.58c0-6.8-4.81-11.46-11.2-11.46s-11.2,4.65-11.2,11.46,4.81,11.46,11.2,11.46,11.2-4.65,11.2-11.46Z"/>
        <path class="cls-3" d="M190.49,249.48l-.05-21.48-10.54,17.7h-3.73l-10.49-17.24v21.02h-7.77v-35.8h6.85l13.4,22.25,13.2-22.25h6.8l.1,35.8h-7.77Z"/>
        <path class="cls-3" d="M236.98,242.83v6.65h-27.72v-35.8h27.06v6.65h-18.82v7.77h16.62v6.45h-16.62v8.29h19.49Z"/>
        <path class="cls-3" d="M278.92,213.68v35.8h-6.8l-17.85-21.74v21.74h-8.18v-35.8h6.85l17.8,21.74v-21.74h8.18Z"/>
        <path class="cls-3" d="M318.92,242.73v6.75h-31.3v-5.37l19.64-23.68h-19.23v-6.75h30.13v5.37l-19.59,23.68h20.36Z"/>
        <path class="cls-3" d="M350.33,241.81h-16.62l-3.17,7.67h-8.49l15.96-35.8h8.18l16.01,35.8h-8.7l-3.17-7.67ZM347.72,235.52l-5.68-13.71-5.68,13.71h11.35Z"/>
        <path class="cls-3" d="M391.24,249.48l-6.9-9.97h-7.62v9.97h-8.29v-35.8h15.5c9.56,0,15.55,4.96,15.55,12.99,0,5.37-2.71,9.31-7.37,11.3l8.03,11.51h-8.9ZM383.47,220.43h-6.75v12.48h6.75c5.06,0,7.62-2.35,7.62-6.24s-2.56-6.24-7.62-6.24Z"/>
      </g>
    </g>
    <g>
      <path class="cls-3" d="M205.1,157.35c-1.33-.92-2.08-2.11-2.29-3.62-.19-1.33.05-2.6.5-3.86.25-.7.37-1.45.58-2.32.5.47,1.05.98,1.61,1.5.86-1.08,1.03-2.36.97-3.7-.08-1.83.94-3.34,2.55-3.8.01.02.03.05.03.07-.01.1-.03.21-.05.31-.28,1.59.07,2.94,1.33,4.05,1.1.97,1.7,2.25,2.01,3.67.06.29.13.59.2.88.09.02.18.04.27.06.28-.66.56-1.31.83-1.95,1.67,2.67,1.3,6.08-.9,8.5,2.26-.81,4.06-2.14,5.07-4.38,1.12-2.49.97-5.06.35-7.63-.3-1.24-.76-2.44-1.15-3.66-.98,3.07-1.02,3.14-1.94,3.47-.03-.05-.06-.09-.07-.14-.02-.08-.04-.16-.05-.24-.38-3.07-1.7-5.64-4.02-7.72-1.31-1.17-1.89-2.71-1.87-4.45.01-.84.15-1.68.24-2.6-2.31.85-3.74,2.45-4.19,4.84-.17.88-.1,1.81-.12,2.72-.04,1.92-.46,3.7-1.78,5.28-.73-1.19-1.49-2.28-3.04-2.64.55,1.34.14,2.46-.32,3.58-.97,2.33-1.34,4.72-.85,7.22.6,3.11,3.27,5.99,6.12,6.52Z"/>
      <path class="cls-3" d="M279.79,157.64c-1.62-2.38-3.34-4.7-5.08-7-1.53-2.03-3.03-4.11-4.73-5.99-2.07-2.29-4.61-3.59-7.87-3.51-5.26.14-10.52.04-15.87.04,0-1.09-.04-2.35,0-3.6.11-3.26-2.31-5.95-5.87-5.87-4.75.12-9.51,0-14.26.06-1.11.01-1.85-.33-2.6-1.15-7.82-8.47-21.79-8.56-29.73-.25-6.79,7.11-7.87,17.21-2.78,25.64.36.59.57,1.36.57,2.05.04,7.9.13,15.8-.02,23.69-.08,4.18,3.03,6.92,6.62,6.64,1-.08,2.01-.01,2.98-.01.86,3.86,2.92,6.67,6.39,8.31,1.09.52,2.31.75,3.48,1.12h2.76c1.12-.37,2.29-.63,3.36-1.13,2.94-1.36,5.36-3.93,6.4-8.3h1.03c5.24,0,10.48-.01,15.71,0,1.55,0,2.97-.33,4.24-1.45,1.59,1.45,3.57,1.54,5.62,1.44.44,2.05,1.25,3.87,2.61,5.43,1.79,2.07,4.01,3.36,6.71,3.84.18.03.34.11.51.17h2.76c1.13-.36,2.31-.61,3.37-1.11,3.6-1.72,5.67-4.64,6.41-8.35,1.97,0,3.92.34,5.8-.37,2.02-.76,3.11-2.38,3.75-4.36v-20.1c-.44-2.08-1.07-4.11-2.27-5.87ZM191.62,144.89c.05-9.41,7.69-17.03,17.01-16.96,9.33.06,16.9,7.67,16.91,16.99,0,9.36-7.62,16.99-16.98,16.98-9.38-.01-16.98-7.65-16.93-17.01ZM212.31,194.01c-4.12-.02-7.55-3.47-7.52-7.58.03-4.13,3.48-7.52,7.61-7.48,4.14.03,7.49,3.45,7.46,7.62-.03,4.08-3.46,7.46-7.55,7.44ZM242.49,182.59c0,1.43-.55,1.98-2.03,1.98-5.4,0-10.8,0-16.19.02-.61,0-.81-.21-.96-.79-1.7-6.66-8.63-10.35-14.95-7.9-3.56,1.38-5.88,3.99-6.94,7.69-.08.29-.16.58-.27.97-1.35,0-2.64.05-3.92-.01-1.12-.05-1.85-.97-1.85-2.23,0-3.81,0-7.62,0-11.43,0-3.23,0-6.45,0-9.7,9.71,6.37,19.27,6.58,27.79-1.67,6.96-6.74,7.7-15.11,3.97-24.03h1.09c4.05,0,8.1,0,12.15,0,1.52,0,2.12.59,2.12,2.12,0,15,0,29.99,0,44.99ZM261.3,194.01c-4.1-.03-7.49-3.43-7.5-7.53-.01-4.13,3.44-7.56,7.57-7.54,4.16.02,7.51,3.43,7.48,7.61-.03,4.11-3.45,7.48-7.55,7.45ZM275.65,184.57c-.77,0-1.53-.02-2.3,0-.26,0-.52.12-.81.19-.47-2.61-1.69-4.97-3.82-6.82-2.13-1.84-4.6-2.8-7.4-2.8-4.89,0-9.85,3.32-11.16,9.39-.71,0-1.44.05-2.17-.01-.89-.09-1.6-.9-1.66-1.81-.02-.31-.01-.61-.01-.92,0-11.37,0-22.74,0-34.11,0-2.17.61-2.76,2.81-2.76,4.23,0,8.47.09,12.7-.04,2.22-.06,3.91.78,5.4,2.28.43.43.82.9,1.41,1.56-3.16,0-6.03.02-8.9,0-1.48-.01-2.77.43-3.89,1.39-1.11.96-1.91,2.14-1.94,3.63-.07,2.88-.18,5.78,0,8.65.19,3,2.77,5.18,5.79,5.19,5.8.01,11.59,0,17.39,0h1.19c.02.38.04.71.05,1.04,0,4.43,0,8.85,0,13.28,0,1.96-.7,2.67-2.65,2.67ZM277.22,163.83c-5.64,0-11.28,0-16.92,0-1.98,0-2.73-.74-2.73-2.71,0-2.12,0-4.24,0-6.36,0-1.49.78-2.28,2.26-2.29,3.65-.02,7.29-.01,10.94,0,.29,0,.7.13.86.35,1.82,2.5,3.66,4.99,5.36,7.58.63.96.9,2.17,1.39,3.42h-1.17Z"/>
    </g>
    <g>
      <path class="cls-3" d="M127.89,286.19c0-3.89,3-6.65,7.2-6.65,2.71,0,4.85,1.18,5.78,3.29l-2.9,1.56c-.7-1.22-1.73-1.78-2.9-1.78-1.9,0-3.38,1.32-3.38,3.58s1.49,3.58,3.38,3.58c1.18,0,2.21-.53,2.9-1.78l2.9,1.58c-.94,2.06-3.07,3.26-5.78,3.26-4.2,0-7.2-2.76-7.2-6.65Z"/>
      <path class="cls-3" d="M154.46,285.28v7.37h-3.5v-1.61c-.7,1.18-2.04,1.8-3.94,1.8-3.02,0-4.83-1.68-4.83-3.91s1.61-3.86,5.54-3.86h2.98c0-1.61-.96-2.54-2.98-2.54-1.37,0-2.78.46-3.72,1.2l-1.34-2.62c1.42-1.01,3.5-1.56,5.57-1.56,3.94,0,6.22,1.82,6.22,5.74ZM150.72,288.57v-1.32h-2.57c-1.75,0-2.3.65-2.3,1.51,0,.94.79,1.56,2.11,1.56,1.25,0,2.33-.58,2.76-1.75ZM149.37,278.08h-2.93l3.24-3.46h4.03l-4.34,3.46Z"/>
      <path class="cls-3" d="M157.84,274.84h3.74v17.81h-3.74v-17.81Z"/>
      <path class="cls-3" d="M164.11,286.19c0-3.89,3-6.65,7.2-6.65,2.71,0,4.85,1.18,5.78,3.29l-2.9,1.56c-.7-1.22-1.73-1.78-2.9-1.78-1.9,0-3.38,1.32-3.38,3.58s1.49,3.58,3.38,3.58c1.18,0,2.21-.53,2.9-1.78l2.9,1.58c-.94,2.06-3.07,3.26-5.78,3.26-4.2,0-7.2-2.76-7.2-6.65Z"/>
      <path class="cls-3" d="M192.26,279.73v12.91h-3.55v-1.54c-.98,1.13-2.42,1.73-4.01,1.73-3.24,0-5.52-1.82-5.52-5.81v-7.3h3.74v6.74c0,2.16.96,3.12,2.62,3.12s2.98-1.1,2.98-3.48v-6.38h3.74Z"/>
      <path class="cls-3" d="M195.74,274.84h3.74v17.81h-3.74v-17.81Z"/>
      <path class="cls-3" d="M202,286.19c0-3.89,3-6.65,7.11-6.65s7.08,2.76,7.08,6.65-2.98,6.65-7.08,6.65-7.11-2.76-7.11-6.65ZM212.4,286.19c0-2.23-1.42-3.58-3.29-3.58s-3.31,1.34-3.31,3.58,1.44,3.58,3.31,3.58,3.29-1.34,3.29-3.58Z"/>
      <path class="cls-3" d="M238.63,274.84v17.81h-3.58v-1.49c-.94,1.13-2.3,1.68-4.03,1.68-3.65,0-6.46-2.59-6.46-6.65s2.81-6.65,6.46-6.65c1.58,0,2.93.5,3.86,1.56v-6.26h3.74ZM234.96,286.19c0-2.23-1.44-3.58-3.29-3.58s-3.31,1.34-3.31,3.58,1.44,3.58,3.31,3.58,3.29-1.34,3.29-3.58Z"/>
      <path class="cls-3" d="M254.66,287.25h-9.77c.36,1.61,1.73,2.59,3.7,2.59,1.37,0,2.35-.41,3.24-1.25l1.99,2.16c-1.2,1.37-3,2.09-5.33,2.09-4.46,0-7.37-2.81-7.37-6.65s2.95-6.65,6.89-6.65,6.72,2.54,6.72,6.7c0,.29-.05.7-.07,1.01ZM244.84,285.06h6.36c-.26-1.63-1.49-2.69-3.17-2.69s-2.93,1.03-3.19,2.69Z"/>
      <path class="cls-3" d="M277.22,285.25v7.39h-3.75v-6.82c0-2.09-.96-3.05-2.62-3.05-1.8,0-3.1,1.1-3.1,3.48v6.38h-3.74v-17.81h3.74v6.24c1.01-1.01,2.45-1.54,4.1-1.54,3.05,0,5.35,1.78,5.35,5.71Z"/>
      <path class="cls-3" d="M293.61,279.73v12.91h-3.55v-1.54c-.98,1.13-2.42,1.73-4.01,1.73-3.24,0-5.52-1.82-5.52-5.81v-7.3h3.74v6.74c0,2.16.96,3.12,2.62,3.12s2.98-1.1,2.98-3.48v-6.38h3.74Z"/>
      <path class="cls-3" d="M309.67,287.25h-9.77c.36,1.61,1.73,2.59,3.7,2.59,1.37,0,2.35-.41,3.24-1.25l1.99,2.16c-1.2,1.37-3,2.09-5.33,2.09-4.46,0-7.37-2.81-7.37-6.65s2.95-6.65,6.89-6.65,6.72,2.54,6.72,6.7c0,.29-.05.7-.07,1.01ZM299.85,285.06h6.36c-.26-1.63-1.49-2.69-3.17-2.69s-2.93,1.03-3.19,2.69Z"/>
      <path class="cls-3" d="M312.23,274.84h3.74v17.81h-3.74v-17.81Z"/>
      <path class="cls-3" d="M319.46,274.84h3.74v17.81h-3.74v-17.81Z"/>
      <path class="cls-3" d="M338.11,285.28v7.37h-3.5v-1.61c-.7,1.18-2.04,1.8-3.94,1.8-3.02,0-4.83-1.68-4.83-3.91s1.61-3.86,5.54-3.86h2.98c0-1.61-.96-2.54-2.98-2.54-1.37,0-2.78.46-3.72,1.2l-1.34-2.62c1.42-1.01,3.5-1.56,5.57-1.56,3.94,0,6.22,1.82,6.22,5.74ZM334.36,288.57v-1.32h-2.57c-1.75,0-2.3.65-2.3,1.51,0,.94.79,1.56,2.11,1.56,1.25,0,2.33-.58,2.76-1.75Z"/>
      <path class="cls-3" d="M198.09,314.99c0,4.06-2.81,6.65-6.43,6.65-1.61,0-2.93-.5-3.89-1.56v6.02h-3.74v-17.57h3.58v1.49c.94-1.13,2.33-1.68,4.06-1.68,3.62,0,6.43,2.59,6.43,6.65ZM194.3,314.99c0-2.23-1.42-3.58-3.29-3.58s-3.29,1.34-3.29,3.58,1.42,3.58,3.29,3.58,3.29-1.34,3.29-3.58Z"/>
      <path class="cls-3" d="M213.16,316.05h-9.77c.36,1.61,1.73,2.59,3.7,2.59,1.37,0,2.35-.41,3.24-1.25l1.99,2.16c-1.2,1.37-3,2.09-5.33,2.09-4.46,0-7.37-2.81-7.37-6.65s2.95-6.65,6.89-6.65,6.72,2.54,6.72,6.7c0,.29-.05.7-.07,1.01ZM203.35,313.86h6.36c-.26-1.63-1.49-2.69-3.17-2.69s-2.93,1.03-3.19,2.69Z"/>
      <path class="cls-3" d="M223.75,308.34v3.46c-.31-.02-.55-.05-.84-.05-2.06,0-3.43,1.13-3.43,3.6v6.1h-3.74v-12.91h3.58v1.7c.91-1.25,2.45-1.9,4.44-1.9Z"/>
      <path class="cls-3" d="M224.78,320.25l1.25-2.69c1.15.74,2.9,1.25,4.49,1.25,1.73,0,2.38-.46,2.38-1.18,0-2.11-7.8.05-7.8-5.11,0-2.45,2.21-4.18,5.98-4.18,1.78,0,3.74.41,4.97,1.13l-1.25,2.66c-1.27-.72-2.54-.96-3.72-.96-1.68,0-2.4.53-2.4,1.2,0,2.21,7.8.07,7.8,5.16,0,2.4-2.23,4.1-6.1,4.1-2.18,0-4.39-.6-5.59-1.39Z"/>
      <path class="cls-3" d="M237.81,314.99c0-3.89,3-6.65,7.1-6.65s7.08,2.76,7.08,6.65-2.98,6.65-7.08,6.65-7.1-2.76-7.1-6.65ZM248.2,314.99c0-2.23-1.42-3.58-3.29-3.58s-3.31,1.34-3.31,3.58,1.44,3.58,3.31,3.58,3.29-1.34,3.29-3.58Z"/>
      <path class="cls-3" d="M267.69,314.05v7.39h-3.75v-6.82c0-2.09-.96-3.05-2.62-3.05-1.8,0-3.1,1.1-3.1,3.48v6.38h-3.74v-12.91h3.58v1.51c1.01-1.1,2.52-1.7,4.27-1.7,3.05,0,5.35,1.78,5.35,5.71Z"/>
      <path class="cls-3" d="M282.5,314.08v7.37h-3.5v-1.61c-.7,1.18-2.04,1.8-3.94,1.8-3.02,0-4.83-1.68-4.83-3.91s1.61-3.86,5.54-3.86h2.98c0-1.61-.96-2.54-2.98-2.54-1.37,0-2.78.46-3.72,1.2l-1.34-2.62c1.42-1.01,3.5-1.56,5.57-1.56,3.94,0,6.22,1.82,6.22,5.74ZM278.76,317.37v-1.32h-2.57c-1.75,0-2.3.65-2.3,1.51,0,.94.79,1.56,2.11,1.56,1.25,0,2.33-.58,2.76-1.75Z"/>
      <path class="cls-3" d="M285.88,303.64h3.74v17.81h-3.74v-17.81Z"/>
    </g>
  </g>
</svg>