<?xml version="1.0" encoding="UTF-8"?>
<svg id="Capa_2" data-name="Capa 2" xmlns="http://www.w3.org/2000/svg" xmlns:xlink="http://www.w3.org/1999/xlink" viewBox="0 0 466 466">
  <defs>
    <style>
      .cls-1 {
        fill: #009a6b;
      }

      .cls-1, .cls-2, .cls-3 {
        stroke-width: 0px;
      }

      .cls-4 {
        stroke: #f4dfb9;
        stroke-miterlimit: 10;
      }

      .cls-4, .cls-3 {
        fill: #f4dfb9;
      }

      .cls-2 {
        fill: none;
      }

      .cls-5 {
        filter: url(#drop-shadow-1);
      }
    </style>
    <filter id="drop-shadow-1" filterUnits="userSpaceOnUse">
      <feOffset dx="0" dy="13"/>
      <feGaussianBlur result="blur" stdDeviation="8"/>
      <feFlood flood-color="#2b2b2b" flood-opacity=".75"/>
      <feComposite in2="blur" operator="in"/>
      <feComposite in="SourceGraphic"/>
    </filter>
  </defs>
  <g id="Capa_1-2" data-name="Capa 1">
    <rect class="cls-2" width="466" height="466"/>
    <g class="cls-5">
      <path class="cls-1" d="M377.21,177.44c-6.38,0-12.51,1.09-18.22,3.07-20.54-49.09-69.03-83.58-125.57-83.58s-105.19,34.61-125.67,83.83c-5.91-2.15-12.29-3.32-18.95-3.32-30.68,0-55.56,24.87-55.56,55.56s24.87,55.56,55.56,55.56c6.65,0,13.03-1.17,18.95-3.32,20.48,49.22,69.03,83.83,125.67,83.83s105.03-34.49,125.57-83.58c5.71,1.98,11.84,3.07,18.22,3.07,30.68,0,55.56-24.87,55.56-55.56s-24.87-55.56-55.56-55.56Z"/>
      <path class="cls-3" d="M376.71,170.54c-4.8,0-9.55.55-14.19,1.63-23.51-49.94-73.52-81.87-129.11-81.87s-105.71,31.99-129.19,82.04c-4.87-1.2-9.87-1.8-14.94-1.8-34.44,0-62.46,28.02-62.46,62.46s28.02,62.46,62.46,62.46c5.07,0,10.07-.6,14.94-1.8,23.48,50.04,73.51,82.04,129.19,82.04s105.6-31.93,129.11-81.87c4.64,1.08,9.39,1.63,14.19,1.63,34.44,0,62.46-28.02,62.46-62.46s-28.02-62.46-62.46-62.46ZM376.71,281.28c-5.4,0-10.73-.9-15.83-2.67l-6.29-2.18-2.57,6.14c-20.07,47.96-66.62,78.95-118.6,78.95s-98.68-31.08-118.7-79.18l-2.6-6.25-6.36,2.31c-5.27,1.91-10.81,2.88-16.47,2.88-26.62,0-48.28-21.66-48.28-48.28s21.66-48.28,48.28-48.28c5.65,0,11.19.97,16.47,2.88l6.36,2.31,2.6-6.25c20.02-48.1,66.61-79.18,118.7-79.18s98.53,30.99,118.6,78.95l2.57,6.14,6.29-2.18c5.11-1.77,10.43-2.67,15.83-2.67,26.62,0,48.28,21.66,48.28,48.28s-21.66,48.28-48.28,48.28Z"/>
      <g>
        <path class="cls-3" d="M70.75,231.58c0-10.79,8.29-18.52,19.44-18.52,6.19,0,11.35,2.25,14.73,6.34l-5.32,4.91c-2.4-2.76-5.42-4.19-9-4.19-6.7,0-11.46,4.71-11.46,11.46s4.76,11.46,11.46,11.46c3.58,0,6.6-1.43,9-4.25l5.32,4.91c-3.38,4.14-8.54,6.39-14.78,6.39-11.1,0-19.38-7.72-19.38-18.52Z"/>
        <path class="cls-3" d="M109.98,231.58c0-10.64,8.29-18.52,19.59-18.52s19.59,7.83,19.59,18.52-8.34,18.52-19.59,18.52-19.59-7.88-19.59-18.52ZM140.77,231.58c0-6.8-4.81-11.46-11.2-11.46s-11.2,4.65-11.2,11.46,4.81,11.46,11.2,11.46,11.2-4.65,11.2-11.46Z"/>
        <path class="cls-3" d="M190.49,249.48l-.05-21.48-10.54,17.7h-3.73l-10.49-17.24v21.02h-7.77v-35.8h6.85l13.4,22.25,13.2-22.25h6.8l.1,35.8h-7.77Z"/>
        <path class="cls-3" d="M236.98,242.83v6.65h-27.72v-35.8h27.06v6.65h-18.82v7.77h16.62v6.45h-16.62v8.29h19.49Z"/>
        <path class="cls-3" d="M278.92,213.68v35.8h-6.8l-17.85-21.74v21.74h-8.18v-35.8h6.85l17.8,21.74v-21.74h8.18Z"/>
        <path class="cls-3" d="M318.92,242.73v6.75h-31.3v-5.37l19.64-23.68h-19.23v-6.75h30.13v5.37l-19.59,23.68h20.36Z"/>
        <path class="cls-3" d="M350.33,241.81h-16.62l-3.17,7.67h-8.49l15.96-35.8h8.18l16.01,35.8h-8.7l-3.17-7.67ZM347.72,235.52l-5.68-13.71-5.68,13.71h11.35Z"/>
        <path class="cls-3" d="M391.24,249.48l-6.9-9.97h-7.62v9.97h-8.29v-35.8h15.5c9.56,0,15.55,4.96,15.55,12.99,0,5.37-2.71,9.31-7.37,11.3l8.03,11.51h-8.9ZM383.47,220.43h-6.75v12.48h6.75c5.06,0,7.62-2.35,7.62-6.24s-2.56-6.24-7.62-6.24Z"/>
      </g>
    </g>
    <g>
      <path class="cls-4" d="M239.13,162.93c-.29,0-.59,0-1.03,0,4.39-4.6,3.44-10.26.41-13.42-3.25-3.39-8.55-3.87-12.32-1.1-1.93,1.42-3.17,3.3-3.65,5.63-.7,3.38.33,6.29,2.84,8.91-.75,0-1.29-.03-1.82,0-3.46.2-6.04,2.84-6.11,6.3-.04,1.91-.04,3.82,0,5.73.04,1.89,1.44,3.35,3.32,3.38,2.67.05,5.34.03,8.01.01.78,0,1.28-.48,1.31-1.14.03-.7-.48-1.23-1.29-1.26-.97-.04-1.94,0-2.91-.01-.26,0-.51-.03-.81-.05,0-.67.01-1.26,0-1.85-.02-.81-.5-1.34-1.2-1.35-.69,0-1.2.52-1.22,1.33-.02.61,0,1.23,0,1.92-.5,0-.93,0-1.35,0-1.14-.01-1.43-.3-1.44-1.44,0-1.67-.01-3.34,0-5.01.02-2.47,1.63-4.14,4.09-4.15,5.18-.03,10.36-.03,15.54,0,2.42.02,4.04,1.68,4.07,4.09.02,1.37,0,2.75,0,4.12,0,2.4-.1,2.49-2.51,2.38-.07,0-.14-.05-.28-.09,0-.61.02-1.23,0-1.84-.03-.79-.55-1.33-1.24-1.31-.67.02-1.15.53-1.17,1.29-.02.61,0,1.23,0,1.96-1.24,0-2.37,0-3.5,0-.95.01-1.5.46-1.51,1.21,0,.75.54,1.21,1.49,1.21,2.51,0,5.02.02,7.53,0,2.21-.02,3.62-1.44,3.64-3.66.02-1.64,0-3.29,0-4.93-.01-4.2-2.66-6.85-6.87-6.87ZM231.82,162.91c-3.76.09-6.98-2.98-7.06-6.73-.09-3.89,2.91-7.03,6.81-7.14,3.81-.1,7.03,2.96,7.1,6.76.07,3.87-2.96,7.02-6.85,7.11Z"/>
      <path class="cls-4" d="M235.2,184.85c-1.24.24-2.38,1-3.72,1.6-.02-.02-.11-.1-.2-.18-3.88-3.25-9.61-1.2-10.49,3.77-.34,1.89.24,3.63,1.14,5.26,1.85,3.36,4.55,5.99,7.52,8.34,1.48,1.17,3.5.99,4.99-.32,1.43-1.27,2.84-2.57,4.14-3.96,1.74-1.86,3.22-3.91,3.9-6.42,1.29-4.71-2.51-8.99-7.27-8.08ZM239.83,193.07c-.63,1.86-1.87,3.39-3.21,4.79-1.19,1.24-2.46,2.41-3.74,3.56-.76.69-1.51.7-2.26.07-2.24-1.87-4.34-3.88-5.95-6.33-.82-1.24-1.5-2.55-1.54-3.77-.01-2.09,1.14-3.65,2.81-4.14,1.71-.5,3.5.21,4.51,1.72.25.38.61.8,1.02.94.74.25,1.16-.31,1.52-.9.88-1.42,2.44-2.14,3.99-1.86,1.67.3,2.99,1.43,3.21,3.08.12.91-.05,1.94-.35,2.82Z"/>
      <path class="cls-4" d="M204.01,148c.2-.19.65-.48.91-.9,1.89-2.98,4.17-5.61,6.92-7.82.96-.77,2.01-1.45,3-2.19.6-.45.72-1.16.33-1.7-.38-.54-1.01-.66-1.65-.32-.14.08-.27.17-.41.26-4.15,2.74-7.55,6.21-10.19,10.42-.14.23-.29.46-.37.71-.26.79.31,1.54,1.46,1.54Z"/>
      <path class="cls-4" d="M214.74,190.13c-4.08-2.65-7.4-6.05-9.97-10.18-.21-.34-.66-.54-.83-.67-1.27.02-1.77,1.01-1.2,1.94,2.72,4.46,6.29,8.1,10.68,10.93.69.45,1.37.32,1.77-.28.39-.58.25-1.28-.45-1.74Z"/>
      <path class="cls-4" d="M260.4,179.47c-.54-.34-1.09-.27-1.54.2-.17.17-.28.39-.41.59-2.44,3.88-5.58,7.09-9.4,9.63-.25.16-.59.31-.68.54-.16.39-.3.9-.17,1.26.13.35.61.57.96.87.47-.24.82-.38,1.12-.58,4.2-2.76,7.64-6.27,10.3-10.54.11-.18.23-.37.3-.57.2-.58.04-1.08-.47-1.4Z"/>
      <path class="cls-4" d="M248.76,137.22c4.02,2.6,7.28,5.94,9.81,10,.49.79,1.19,1.01,1.82.6.62-.4.72-1.1.22-1.91-2.69-4.34-6.18-7.91-10.48-10.69-.26-.17-.57-.27-1.03-.49-.34.33-.81.6-.98,1.01-.27.62.08,1.12.64,1.48Z"/>
      <path class="cls-4" d="M208.95,176.97s.03-.01.05-.02c0,0,.02,0,.02,0,1.17-.22,1.98-1.07,2.12-2.21.09-.73.15-1.47.2-2.19.02-.23.04-.46.05-.69.09-1.12.18-2.25.27-3.37.07-.84.14-1.68.2-2.52.17-2.02.33-4.04.5-6.06.03-.36.06-.73.09-1.1l.02-.26c.16,0,.31,0,.47,0,.69,0,1.14-.46,1.15-1.15,0-.12,0-.23,0-.35,0-.36.01-.73-.02-1.1-.04-.47-.12-.84-.27-1.14-.46-.96-1.29-1.48-2.42-1.49-.98,0-1.97,0-2.95,0h-1.23c0-.12,0-.24,0-.36-.02-1.56-1.15-2.69-2.7-2.7-1.46,0-2.95,0-4.41,0-1.55,0-2.69,1.14-2.7,2.7,0,.12,0,.24,0,.36h-1.26c-.97,0-1.95,0-2.92,0-1.55,0-2.69,1.14-2.7,2.7,0,.45,0,.9,0,1.35,0,.72.45,1.17,1.17,1.18.15,0,.29,0,.44,0,.01.14.02.27.03.4l.22,2.65c.14,1.7.28,3.39.42,5.09.15,1.81.29,3.62.44,5.42l.19,2.32c.06.76.32,1.35.8,1.82.46.45,1.03.63,1.48.74h13.17s.05-.01.05-.01ZM203.73,152.43c.26,0,.52,0,.79,0,.38,0,.54.16.54.55,0,.11,0,.21,0,.32h-5.47c0-.17,0-.33,0-.49.02-.28.27-.38.49-.38.79,0,1.58,0,2.37,0h.91s.36,0,.36,0ZM211.93,156.35h-19.22c0-.15,0-.3,0-.44.01-.23.18-.4.42-.42.04,0,.09,0,.13,0h18.07c.56,0,.58.31.59.41,0,.15,0,.3,0,.46ZM210.31,158.55l-.02.28c-.04.45-.07.89-.11,1.33l-.91,10.99c-.08,1-.17,1.99-.24,2.99-.04.57-.15.67-.69.67h-12.07c-.5,0-.61-.11-.65-.63-.1-1.32-.21-2.64-.32-3.96l-.17-2.05c-.08-.93-.15-1.87-.23-2.8l-.56-6.81h15.97Z"/>
      <path class="cls-4" d="M197.38,172.33c.12.04.25.07.38.07.21,0,.42-.06.59-.19.3-.21.48-.57.48-.98,0-1.24,0-2.49,0-3.73v-6.79c0-.8-.42-1.29-1.09-1.29-.67,0-1.09.49-1.09,1.29v10.45c0,.08,0,.15,0,.23.05.45.31.79.72.94Z"/>
      <path class="cls-4" d="M201.23,167.38c0,1.28,0,2.57,0,3.85,0,.67.45,1.16,1.08,1.17h.01c.62,0,1.08-.48,1.09-1.15,0-.04,0-.08,0-.11v-10.41s0-.06,0-.06c0-.08,0-.16,0-.26-.06-.44-.31-.76-.71-.91-.34-.12-.69-.08-.97.12-.3.21-.48.57-.48.97,0,1.28,0,2.56,0,3.83v1.49s0,1.47,0,1.47Z"/>
      <path class="cls-4" d="M206.55,172.33c.13.05.25.07.38.07.21,0,.41-.06.59-.19.3-.21.48-.57.48-.97,0-1.28,0-2.56,0-3.85v-6.68c0-.79-.42-1.29-1.08-1.29h0c-.29,0-.55.1-.74.29-.23.23-.35.57-.35,1v10.39s0,.06,0,.06c0,.08,0,.15,0,.23.05.45.3.79.72.94Z"/>
      <path class="cls-4" d="M232.59,117.21c-.2-.35-.61-.49-.99-.4-.41.1-.69.44-.69.9-.01,1.04,0,2.08,0,3.12,0,.28-.06.49-.44.51,0-.15,0-.28,0-.41,0-1.07,0-2.14-.01-3.2,0-.56-.38-.94-.9-.94-.54,0-.92.38-.93.96-.01.54,0,1.08,0,1.62,0,.65,0,1.31,0,1.99-.43-.05-.45-.32-.45-.61,0-1.03,0-2.06-.01-3.08,0-.38-.2-.65-.54-.81-.33-.15-.65-.11-.93.12-.15.12-.25.29-.37.44v3.96c.15.32.26.66.46.94.43.61,1.07.86,1.81.91,0,.12.01.21.01.3,0,2.97,0,5.93,0,8.9,0,1.7,0,3.4,0,5.1,0,.48.31.86.75.94.43.08.89-.14,1.02-.55.07-.21.08-.44.08-.66,0-4.34,0-8.67,0-13.01,0-.34,0-.67,0-1,1.46-.22,2.25-.98,2.29-2.19.03-1.11.01-2.22,0-3.32,0-.18-.06-.37-.15-.52Z"/>
      <path class="cls-4" d="M235.72,117.46c-.13-.47-.53-.71-.99-.67-.44.04-.76.38-.81.88-.01.13-.01.26-.01.39,0,6.38,0,12.76,0,19.14,0,.17,0,.34.03.51.07.45.42.75.87.76.58.02.95-.41.95-1.1,0-3.09,0-6.17,0-9.26,0-.34.04-.59.37-.78.2-.12.39-.34.48-.56.2-.52.34-1.06.51-1.6v-1.5c-.11-.69-.17-1.38-.33-2.06-.33-1.39-.69-2.78-1.07-4.16Z"/>
      <path class="cls-4" d="M232.17,112.28c-8.39-.03-15.28,6.87-15.29,15.29,0,8.3,6.83,15.17,15.11,15.21,8.48.04,15.42-6.75,15.4-15.22-.02-8.47-6.73-15.18-15.22-15.29ZM232.12,140c-7.06-.1-12.47-5.7-12.42-12.52.05-6.93,5.65-12.42,12.49-12.37,6.91.05,12.5,5.7,12.39,12.53-.1,6.87-5.71,12.43-12.47,12.36Z"/>
      <path class="cls-4" d="M259.39,155.79c-1.43.16-2.76.55-3.96,1.15-1.35.68-2.41,1.51-3.25,2.55-.88,1.1-1.53,2.38-1.98,3.91-.16.54-.08,1.05.21,1.45.29.39.77.61,1.33.61h17.74c.3,0,.72,0,1.16-.19.44-.19.73-.54.82-.99.06-.3.04-.61-.06-.88-.11-.31-.23-.62-.34-.93-.08-.22-.16-.44-.24-.65-.25-.67-.56-1.29-.95-1.83-.98-1.39-2.33-2.47-4.02-3.22-1.15-.52-2.42-.85-3.77-.98-.9-.09-1.81-.09-2.7.02ZM261.9,157.71c1.16.12,2.19.39,3.17.82,1.38.62,2.44,1.46,3.23,2.57.29.41.52.86.71,1.37.08.23.17.45.25.68.05.12.09.24.14.36h-6.89s-10.29,0-10.29,0c.36-1.09.85-2.01,1.49-2.81.65-.82,1.51-1.48,2.6-2.03,1-.5,2.11-.82,3.31-.96.75-.09,1.51-.09,2.28-.01Z"/>
      <path class="cls-4" d="M269.48,171.26h-9.98c-2.43,0-4.86,0-7.29,0-.19,0-.4,0-.63.07-.68.19-1.18.65-1.36,1.26-.18.58-.04,1.22.37,1.7.22.26.43.53.65.82.13.16.25.33.38.49.39.49.92.75,1.54.75h0c5.11,0,10.23,0,15.34,0h0c.63,0,1.17-.27,1.57-.78.35-.45.7-.9,1.06-1.35.49-.62.52-1.47.07-2.1-.39-.55-1-.86-1.71-.86ZM268.53,174.38s-.04.04-.04.03c-2.4,0-4.79,0-7.19,0-2.72,0-5.44,0-8.16,0h0s0,0,0,0c-.12-.15-.24-.31-.36-.47-.18-.24-.37-.49-.58-.73h0c2.43,0,4.86,0,7.29,0h9.95c-.31.39-.61.78-.92,1.18Z"/>
      <path class="cls-4" d="M282.9,154.21c0-.94-.62-1.54-1.56-1.54h-2.71c.04-.2.07-.39.11-.58.27-.11.54-.21.81-.32.51-.2,1.03-.41,1.55-.6.7-.27,1.17-.82,1.31-1.54.15-.76-.1-1.47-.69-1.96-.54-.45-1.23-.56-1.89-.3-.6.24-1.21.48-1.81.72-.54.21-1.08.43-1.62.64-.63.25-1.07.77-1.21,1.43-.1.5-.19,1-.27,1.48-.04.22-.08.44-.12.65-.02.13-.05.25-.07.38h-4.29c-.89,0-1.54.65-1.54,1.53,0,.79,0,1.58,0,2.38,0,.7.41,1.24,1.02,1.44-.02.22-.04.73.4,1.15l.05.04c.36.35.71.67,1.02,1.02.87.99,1.49,2.15,1.85,3.45.12.43-.01.65-.17.81-.21.23-.34.56-.33.88.02.47.03.94.05,1.4l.03.9c.03.72.05,1.44.08,2.16l.11,3.18h1.25c.21,0,.41,0,.62,0,1.82,0,3.64.01,5.47.02h.01c.47,0,.85-.14,1.13-.43.29-.29.43-.67.43-1.15v-13.22c0-.06,0-.13,0-.19v-.06c.61-.2,1-.74,1-1.46,0-.72,0-1.49,0-2.34ZM277.08,150.53s0,0,.03-.01c.54-.21,1.08-.43,1.62-.64.59-.23,1.17-.46,1.77-.7,0,0,0,.03,0,.06-.01.06-.01.07-.1.11-.52.2-1.04.41-1.56.61-.4.16-.79.31-1.19.47-.3.12-.52.32-.65.59.03-.16.06-.32.09-.48ZM270.83,154.61h10.13c0,.55,0,1.06,0,1.55-3.38,0-6.75,0-10.13,0,0-.51,0-1.03,0-1.55ZM279.96,171.1c-1.7,0-3.39-.01-5.09-.02l-.05-1.3c-.03-.72-.05-1.45-.08-2.17l-.03-.91c-.01-.38-.03-.75-.04-1.13.52-.68.66-1.51.42-2.41-.42-1.55-1.15-2.93-2.17-4.12h7.04v12.05Z"/>
      <path class="cls-4" d="M270.14,166.31h-18.35c-1.19,0-2.16.97-2.16,2.16s.97,2.16,2.16,2.16h18.35c1.19,0,2.16-.97,2.16-2.16s-.97-2.16-2.16-2.16ZM270.14,168.69h-18.35c-.12,0-.22-.1-.22-.22s.1-.22.22-.22h18.35c.12,0,.22.1.22.22s-.1.22-.22.22Z"/>
    </g>
    <g>
      <path class="cls-3" d="M127.89,286.19c0-3.89,3-6.65,7.2-6.65,2.71,0,4.85,1.18,5.78,3.29l-2.9,1.56c-.7-1.22-1.73-1.78-2.9-1.78-1.9,0-3.38,1.32-3.38,3.58s1.49,3.58,3.38,3.58c1.18,0,2.21-.53,2.9-1.78l2.9,1.58c-.94,2.06-3.07,3.26-5.78,3.26-4.2,0-7.2-2.76-7.2-6.65Z"/>
      <path class="cls-3" d="M154.46,285.28v7.37h-3.5v-1.61c-.7,1.18-2.04,1.8-3.94,1.8-3.02,0-4.83-1.68-4.83-3.91s1.61-3.86,5.54-3.86h2.98c0-1.61-.96-2.54-2.98-2.54-1.37,0-2.78.46-3.72,1.2l-1.34-2.62c1.42-1.01,3.5-1.56,5.57-1.56,3.94,0,6.22,1.82,6.22,5.74ZM150.72,288.57v-1.32h-2.57c-1.75,0-2.3.65-2.3,1.51,0,.94.79,1.56,2.11,1.56,1.25,0,2.33-.58,2.76-1.75ZM149.37,278.08h-2.93l3.24-3.46h4.03l-4.34,3.46Z"/>
      <path class="cls-3" d="M157.84,274.84h3.74v17.81h-3.74v-17.81Z"/>
      <path class="cls-3" d="M164.11,286.19c0-3.89,3-6.65,7.2-6.65,2.71,0,4.85,1.18,5.78,3.29l-2.9,1.56c-.7-1.22-1.73-1.78-2.9-1.78-1.9,0-3.38,1.32-3.38,3.58s1.49,3.58,3.38,3.58c1.18,0,2.21-.53,2.9-1.78l2.9,1.58c-.94,2.06-3.07,3.26-5.78,3.26-4.2,0-7.2-2.76-7.2-6.65Z"/>
      <path class="cls-3" d="M192.26,279.73v12.91h-3.55v-1.54c-.98,1.13-2.42,1.73-4.01,1.73-3.24,0-5.52-1.82-5.52-5.81v-7.3h3.74v6.74c0,2.16.96,3.12,2.62,3.12s2.98-1.1,2.98-3.48v-6.38h3.74Z"/>
      <path class="cls-3" d="M195.74,274.84h3.74v17.81h-3.74v-17.81Z"/>
      <path class="cls-3" d="M202,286.19c0-3.89,3-6.65,7.11-6.65s7.08,2.76,7.08,6.65-2.98,6.65-7.08,6.65-7.11-2.76-7.11-6.65ZM212.4,286.19c0-2.23-1.42-3.58-3.29-3.58s-3.31,1.34-3.31,3.58,1.44,3.58,3.31,3.58,3.29-1.34,3.29-3.58Z"/>
      <path class="cls-3" d="M238.63,274.84v17.81h-3.58v-1.49c-.94,1.13-2.3,1.68-4.03,1.68-3.65,0-6.46-2.59-6.46-6.65s2.81-6.65,6.46-6.65c1.58,0,2.93.5,3.86,1.56v-6.26h3.74ZM234.96,286.19c0-2.23-1.44-3.58-3.29-3.58s-3.31,1.34-3.31,3.58,1.44,3.58,3.31,3.58,3.29-1.34,3.29-3.58Z"/>
      <path class="cls-3" d="M254.66,287.25h-9.77c.36,1.61,1.73,2.59,3.7,2.59,1.37,0,2.35-.41,3.24-1.25l1.99,2.16c-1.2,1.37-3,2.09-5.33,2.09-4.46,0-7.37-2.81-7.37-6.65s2.95-6.65,6.89-6.65,6.72,2.54,6.72,6.7c0,.29-.05.7-.07,1.01ZM244.84,285.06h6.36c-.26-1.63-1.49-2.69-3.17-2.69s-2.93,1.03-3.19,2.69Z"/>
      <path class="cls-3" d="M277.22,285.25v7.39h-3.75v-6.82c0-2.09-.96-3.05-2.62-3.05-1.8,0-3.1,1.1-3.1,3.48v6.38h-3.74v-17.81h3.74v6.24c1.01-1.01,2.45-1.54,4.1-1.54,3.05,0,5.35,1.78,5.35,5.71Z"/>
      <path class="cls-3" d="M293.61,279.73v12.91h-3.55v-1.54c-.98,1.13-2.42,1.73-4.01,1.73-3.24,0-5.52-1.82-5.52-5.81v-7.3h3.74v6.74c0,2.16.96,3.12,2.62,3.12s2.98-1.1,2.98-3.48v-6.38h3.74Z"/>
      <path class="cls-3" d="M309.67,287.25h-9.77c.36,1.61,1.73,2.59,3.7,2.59,1.37,0,2.35-.41,3.24-1.25l1.99,2.16c-1.2,1.37-3,2.09-5.33,2.09-4.46,0-7.37-2.81-7.37-6.65s2.95-6.65,6.89-6.65,6.72,2.54,6.72,6.7c0,.29-.05.7-.07,1.01ZM299.85,285.06h6.36c-.26-1.63-1.49-2.69-3.17-2.69s-2.93,1.03-3.19,2.69Z"/>
      <path class="cls-3" d="M312.23,274.84h3.74v17.81h-3.74v-17.81Z"/>
      <path class="cls-3" d="M319.46,274.84h3.74v17.81h-3.74v-17.81Z"/>
      <path class="cls-3" d="M338.11,285.28v7.37h-3.5v-1.61c-.7,1.18-2.04,1.8-3.94,1.8-3.02,0-4.83-1.68-4.83-3.91s1.61-3.86,5.54-3.86h2.98c0-1.61-.96-2.54-2.98-2.54-1.37,0-2.78.46-3.72,1.2l-1.34-2.62c1.42-1.01,3.5-1.56,5.57-1.56,3.94,0,6.22,1.82,6.22,5.74ZM334.36,288.57v-1.32h-2.57c-1.75,0-2.3.65-2.3,1.51,0,.94.79,1.56,2.11,1.56,1.25,0,2.33-.58,2.76-1.75Z"/>
      <path class="cls-3" d="M198.09,314.99c0,4.06-2.81,6.65-6.43,6.65-1.61,0-2.93-.5-3.89-1.56v6.02h-3.74v-17.57h3.58v1.49c.94-1.13,2.33-1.68,4.06-1.68,3.62,0,6.43,2.59,6.43,6.65ZM194.3,314.99c0-2.23-1.42-3.58-3.29-3.58s-3.29,1.34-3.29,3.58,1.42,3.58,3.29,3.58,3.29-1.34,3.29-3.58Z"/>
      <path class="cls-3" d="M213.16,316.05h-9.77c.36,1.61,1.73,2.59,3.7,2.59,1.37,0,2.35-.41,3.24-1.25l1.99,2.16c-1.2,1.37-3,2.09-5.33,2.09-4.46,0-7.37-2.81-7.37-6.65s2.95-6.65,6.89-6.65,6.72,2.54,6.72,6.7c0,.29-.05.7-.07,1.01ZM203.35,313.86h6.36c-.26-1.63-1.49-2.69-3.17-2.69s-2.93,1.03-3.19,2.69Z"/>
      <path class="cls-3" d="M223.75,308.34v3.46c-.31-.02-.55-.05-.84-.05-2.06,0-3.43,1.13-3.43,3.6v6.1h-3.74v-12.91h3.58v1.7c.91-1.25,2.45-1.9,4.44-1.9Z"/>
      <path class="cls-3" d="M224.78,320.25l1.25-2.69c1.15.74,2.9,1.25,4.49,1.25,1.73,0,2.38-.46,2.38-1.18,0-2.11-7.8.05-7.8-5.11,0-2.45,2.21-4.18,5.98-4.18,1.78,0,3.74.41,4.97,1.13l-1.25,2.66c-1.27-.72-2.54-.96-3.72-.96-1.68,0-2.4.53-2.4,1.2,0,2.21,7.8.07,7.8,5.16,0,2.4-2.23,4.1-6.1,4.1-2.18,0-4.39-.6-5.59-1.39Z"/>
      <path class="cls-3" d="M237.81,314.99c0-3.89,3-6.65,7.1-6.65s7.08,2.76,7.08,6.65-2.98,6.65-7.08,6.65-7.1-2.76-7.1-6.65ZM248.2,314.99c0-2.23-1.42-3.58-3.29-3.58s-3.31,1.34-3.31,3.58,1.44,3.58,3.31,3.58,3.29-1.34,3.29-3.58Z"/>
      <path class="cls-3" d="M267.69,314.05v7.39h-3.75v-6.82c0-2.09-.96-3.05-2.62-3.05-1.8,0-3.1,1.1-3.1,3.48v6.38h-3.74v-12.91h3.58v1.51c1.01-1.1,2.52-1.7,4.27-1.7,3.05,0,5.35,1.78,5.35,5.71Z"/>
      <path class="cls-3" d="M282.5,314.08v7.37h-3.5v-1.61c-.7,1.18-2.04,1.8-3.94,1.8-3.02,0-4.83-1.68-4.83-3.91s1.61-3.86,5.54-3.86h2.98c0-1.61-.96-2.54-2.98-2.54-1.37,0-2.78.46-3.72,1.2l-1.34-2.62c1.42-1.01,3.5-1.56,5.57-1.56,3.94,0,6.22,1.82,6.22,5.74ZM278.76,317.37v-1.32h-2.57c-1.75,0-2.3.65-2.3,1.51,0,.94.79,1.56,2.11,1.56,1.25,0,2.33-.58,2.76-1.75Z"/>
      <path class="cls-3" d="M285.88,303.64h3.74v17.81h-3.74v-17.81Z"/>
    </g>
  </g>
</svg>