<?xml version="1.0" encoding="UTF-8"?>
<svg id="Capa_2" data-name="Capa 2" xmlns="http://www.w3.org/2000/svg" viewBox="0 0 32 32">
  <defs>
    <style>
      .cls-1 {
        fill: #2b3e4c;
      }

      .cls-1, .cls-2 {
        stroke-width: 0px;
      }

      .cls-2 {
        fill: #f4dfb9;
      }
    </style>
  </defs>
  <g id="Capa_1-2" data-name="Capa 1">
    <g>
      <rect class="cls-1" x="0" y="0" width="32" height="32" rx="16" ry="16"/>
      <g>
        <polygon class="cls-2" points="9.95 17.93 9.82 18.28 9.47 18.39 9.82 18.52 9.93 18.87 10.05 18.52 10.41 18.41 10.06 18.29 9.95 17.93"/>
        <polygon class="cls-2" points="9.96 16.5 9.83 16.86 9.48 16.97 9.83 17.09 9.94 17.45 10.06 17.09 10.42 16.98 10.07 16.86 9.96 16.5"/>
        <polygon class="cls-2" points="10.31 15.18 10.19 15.53 9.83 15.64 10.18 15.76 10.29 16.12 10.42 15.77 10.77 15.66 10.42 15.53 10.31 15.18"/>
        <polygon class="cls-2" points="10.8 13.9 10.68 14.26 10.32 14.37 10.67 14.49 10.78 14.85 10.91 14.49 11.26 14.39 10.91 14.26 10.8 13.9"/>
        <polygon class="cls-2" points="11.72 12.86 11.6 13.22 11.24 13.33 11.59 13.45 11.7 13.81 11.83 13.45 12.18 13.35 11.83 13.22 11.72 12.86"/>
        <polygon class="cls-2" points="12.78 12.06 12.66 12.42 12.3 12.53 12.66 12.65 12.77 13.01 12.89 12.65 13.25 12.55 12.89 12.42 12.78 12.06"/>
        <polygon class="cls-2" points="13.94 11.51 13.81 11.86 13.46 11.97 13.81 12.09 13.92 12.45 14.04 12.1 14.4 11.99 14.05 11.86 13.94 11.51"/>
        <polygon class="cls-2" points="15.31 11.15 15.19 11.51 14.83 11.62 15.19 11.74 15.3 12.1 15.42 11.74 15.78 11.63 15.42 11.51 15.31 11.15"/>
        <polygon class="cls-2" points="22.05 17.93 21.94 18.29 21.59 18.41 21.95 18.52 22.07 18.87 22.18 18.52 22.53 18.39 22.18 18.28 22.05 17.93"/>
        <polygon class="cls-2" points="22.06 17.45 22.17 17.09 22.52 16.97 22.17 16.86 22.04 16.5 21.93 16.86 21.58 16.98 21.94 17.09 22.06 17.45"/>
        <polygon class="cls-2" points="21.71 16.12 21.82 15.76 22.17 15.64 21.81 15.53 21.69 15.18 21.58 15.53 21.23 15.66 21.59 15.77 21.71 16.12"/>
        <polygon class="cls-2" points="21.68 14.37 21.32 14.26 21.2 13.9 21.09 14.26 20.74 14.39 21.1 14.49 21.22 14.85 21.33 14.49 21.68 14.37"/>
        <polygon class="cls-2" points="20.4 13.22 20.28 12.86 20.17 13.22 19.82 13.35 20.18 13.45 20.3 13.81 20.41 13.45 20.76 13.33 20.4 13.22"/>
        <polygon class="cls-2" points="19.22 12.06 19.11 12.42 18.75 12.55 19.11 12.65 19.23 13.01 19.34 12.65 19.7 12.53 19.34 12.42 19.22 12.06"/>
        <polygon class="cls-2" points="18.06 11.51 17.95 11.86 17.6 11.99 17.96 12.1 18.08 12.45 18.19 12.09 18.54 11.97 18.19 11.86 18.06 11.51"/>
        <polygon class="cls-2" points="16.69 11.15 16.58 11.51 16.22 11.63 16.58 11.74 16.71 12.1 16.81 11.74 17.17 11.62 16.81 11.51 16.69 11.15"/>
        <path class="cls-2" d="M26.11,23.69l-1.44.71s-.49.24-.59.67v.05s.03.02.03.02c.06.03.14.04.24.04.26,0,.58-.08.63-.09l1.55-.83c.15-.1.16-.31.07-.45-.08-.13-.25-.23-.49-.11Z"/>
        <path class="cls-2" d="M9.36,10.17c.48-.27.98-.07,1.5.18l4.34-.62c.22-.03.52-.05.8-.04h0c.26,0,.51.01.71.04l4.83.68c.33-.03.67-.16,1-.47.04-.04.04-.1.01-.14-.03-.04-.09-.06-.14-.03-.53.3-1.09.02-1.68-.27,0,0,0,0,0,0-.46-.23-.93-.46-1.4-.42.3-.35.72-.46,1.15-.58.59-.16,1.2-.33,1.54-1.1.02-.05,0-.11-.04-.14-.05-.03-.11-.02-.14.03-.38.48-1,.44-1.66.39-.51-.03-1.03-.07-1.45.15.15-.44.49-.7.84-.97.48-.38.99-.77,1-1.61,0-.05-.04-.1-.09-.11-.05,0-.1.03-.12.08-.16.58-.76.79-1.38,1-.48.16-.98.33-1.28.69-.03-.46.18-.83.4-1.22.3-.53.62-1.09.31-1.87-.02-.05-.07-.08-.13-.06-.05.01-.09.06-.08.12.07.6-.4,1.02-.9,1.45-.38.34-.78.68-.92,1.13-.2-.41-.15-.84-.09-1.28.08-.61.16-1.24-.43-1.85-.04-.04-.1-.04-.14-.01-.04.03-.06.09-.03.14.3.53.02,1.09-.27,1.68-.23.46-.46.93-.42,1.4-.35-.3-.46-.72-.58-1.15-.16-.59-.33-1.2-1.1-1.54-.05-.02-.11,0-.14.04-.03.05-.02.11.03.14.48.38.44,1,.39,1.66-.03.51-.07,1.03.15,1.45-.44-.15-.7-.49-.97-.84-.38-.48-.77-.99-1.61-1-.05,0-.1.04-.11.09,0,.05.03.1.08.12.58.16.79.76,1,1.38.16.48.33.98.69,1.28-.46.03-.83-.18-1.22-.4-.53-.3-1.09-.62-1.87-.31-.05.02-.08.07-.06.13.01.05.06.09.12.08.6-.07,1.02.4,1.45.9.34.38.68.78,1.13.92-.41.2-.84.15-1.28.09-.61-.08-1.24-.16-1.85.43-.04.04-.04.1-.01.14.03.04.09.06.14.03Z"/>
        <path class="cls-2" d="M12.36,27.45l-.07-.03s0,0,0,0l-1.1-.46s-.34-.13-.49-.15c-.4-.05-.56.03-.75.13-.09.05,0,.1,0,.1,0,0,1.37.58,1.43.59.09.03.17.05.23.06.4.05.56-.04.75-.15.09-.05,0-.1,0-.1Z"/>
        <path class="cls-2" d="M9.8,26.34l-.07-.03s0,0,0,0l-1.1-.46s-.34-.13-.49-.15c-.4-.05-.56.03-.75.13-.09.05,0,.1,0,.1,0,0,1.37.58,1.43.59.09.03.17.05.23.06.4.05.56-.04.75-.15.09-.05,0-.1,0-.1Z"/>
        <path class="cls-2" d="M14.97,28.45l-.07-.03s0,0,0,0l-.71-.3-.07-.03-.07-.03-.26-.11s-.34-.13-.49-.15c-.4-.05-.56.03-.75.13-.09.05,0,.1,0,.1,0,0,1.37.58,1.43.59.03,0,.06.02.1.03.03,0,.05.01.07.02.02,0,.05,0,.06.01,0,0,0,0,0,0,.4.05.56-.04.74-.15.09-.05,0-.1,0-.1Z"/>
        <path class="cls-2" d="M7.88,25.13l.04-.02v-.05c-.11-.43-.58-.66-.6-.67l-1.44-.71c-.24-.13-.42-.02-.49.11-.08.14-.08.36.07.45l1.55.83s.37.09.63.09c.09,0,.17-.01.24-.04Z"/>
        <path class="cls-2" d="M21.3,26.81c-.15.02-.49.15-.49.15l-1.1.46s0,0,0,0l-.07.03s-.09.05,0,.1c.18.11.34.19.75.15.06,0,.15-.03.23-.06.06-.01,1.43-.59,1.43-.59,0,0,.09-.05,0-.1-.18-.1-.35-.19-.75-.13Z"/>
        <path class="cls-2" d="M23.86,25.7c-.15.02-.49.15-.49.15l-1.1.46s0,0,0,0l-.07.03s-.09.05,0,.1c.18.11.34.19.75.15.06,0,.15-.03.23-.06.06-.01,1.43-.59,1.43-.59,0,0,.09-.05,0-.1-.18-.1-.35-.19-.75-.13Z"/>
        <path class="cls-2" d="M18.69,27.81c-.15.02-.49.15-.49.15l-.26.11-.07.03-.07.03-.71.3s0,0,0,0l-.07.03s-.09.05,0,.1c.18.1.34.19.74.15,0,0,0,0,0,0,.02,0,.04,0,.06-.01.02,0,.05-.01.07-.02.03,0,.06-.02.1-.03.06-.01,1.43-.59,1.43-.59,0,0,.09-.05,0-.1-.18-.1-.35-.19-.75-.13Z"/>
        <path class="cls-2" d="M26.86,11.82c-.13-.2-.34-.33-.58-.36l-9.57-1.35c-.19-.03-.45-.04-.71-.04-.26,0-.51.01-.71.04l-9.57,1.35c-.24.03-.45.16-.58.36-.13.2-.17.44-.11.68l2.45,9.79.55,2.18c.11.43.51.9.92,1.08l4.6,1.93.55.23.06.03.06.03.37.16.69.29c.18.08.41.12.65.12h0s.01,0,.02,0c.02,0,.03,0,.05,0h0s.03,0,.05,0c0,0,.01,0,.02,0h0c.23,0,.46-.05.65-.12l.69-.29.37-.16.06-.03.06-.03.55-.23,4.6-1.93c.41-.17.82-.64.92-1.08l.55-2.18,2.45-9.79c.06-.24.02-.48-.11-.68ZM10.56,25.43l-.06-.03s0,0,0,0l-1.09-.48s-.33-.16-.45-.25c-.32-.25-.37-.43-.42-.64-.03-.1.08-.07.08-.07,0,0,1.37.59,1.41.63.08.04.16.09.2.13.31.26.36.44.41.64.02.1-.08.07-.08.07ZM13.09,26.63l-.07-.03s0,0,0,0l-1.09-.48s-.33-.16-.45-.25c-.32-.25-.37-.43-.42-.64-.03-.1.08-.07.08-.07,0,0,1.37.59,1.41.63.08.04.16.09.2.13.31.26.36.44.41.64.02.1-.08.07-.08.07ZM14.21,25.47c-.26-.19-.64-.35-1.04-.5,0,0-.09-.04-.12-.06-.47-.26-.88-.58-1.12-1.07-.1-.19-.18-.39-.27-.59-.07-.17-.15-.34-.23-.5-.1-.19-.14-.39-.15-.59,0-.17,0-.34.03-.51.04-.26.07-.52.1-.79.01-.17,0-.34,0-.51,0-.12.08-.17.19-.11.08.04.14.11.19.19.11.16.12.36.13.55,0,.1,0,.2.01.3h0v.56c-.38.16.15.94.25,1.08.09.13.41.53.5.59.08.08.14.14.16.17.02.02.04.02.06.02.02,0,.03,0,.04-.02.03-.03.03-.07,0-.1-.51-.52-.78-.91-.91-1.16-.04-.07-.07-.14-.09-.2-.05-.22.14-.32.35-.18,0,0,.02.01.02.02.05.03.11.07.16.13.25.24.54.44.8.69.18.17.35.33.59.43,0,0,.36.12.54.17.32.09.63.2.91.35.05.04.18.14.19.15-.19.19-.39.48-.58.85-.15.3-.29.65-.42,1.02-.02-.05-.05-.09-.08-.13,0,0,0,0,0-.01-.06-.08-.14-.15-.24-.22ZM14.97,19.97c-.08.04-.44.2-.62-.21l-.29-.57c-.04-.08-.14-.12-.23-.1l-1.21.29c-.08.02-.17,0-.19-.03-.02-.04.02-.11.09-.16l3.18-2.42v7.03s-.1.08-.16.13v-4.27l-.58.31ZM13.91,23.14s-.41-.28-.55-.43c-.01-.01-.04-.9-.05-1.28,0-.09.06-.14.14-.09.07.05.16.11.19.19.06.16.12.34.13.51.02.25.03.56.08.84.02.09.04.18.07.26ZM13.24,22.61c-.17-.16-.36-.31-.51-.45-.03-.02-.02-.09-.02-.12-.02-.41-.03-.82-.04-1.23,0-.14.06-.18.19-.12.12.06.2.16.23.28.04.2.08.4.09.6.03.33.05.69.07,1.04ZM12.53,21.13c.02.29.05.61.06.92-.16-.12-.26-.19-.52-.23,0-.01-.04-1.08-.05-1.3,0-.16.08-.22.22-.14.07.05.13.12.18.2.1.17.09.37.11.56ZM17.4,27.69l-.25.1c-.25-1.9-.55-2.76-.63-2.76-.05,0,.14.25.48,2.82l-.29.12c-.18.08-.41.12-.64.12,0-.42,0-.82,0-.98,0-.04-.03-.07-.07-.07-.04,0-.07.03-.07.07,0,.16,0,.55,0,.98-.23,0-.46-.05-.64-.12l-.29-.12c.34-2.57.53-2.82.48-2.82-.08,0-.38.86-.63,2.76l-.25-.1-.34-.14c.01-.06.02-.13.03-.19,0-.04.01-.08.02-.12,0-.02,0-.05.01-.07,0-.04.02-.08.02-.12,0-.02,0-.04.01-.07,0-.04.02-.08.03-.12,0-.02,0-.05.02-.07,0-.04.02-.07.03-.11,0-.03.01-.05.02-.08,0-.03.02-.06.02-.1,0-.03.01-.06.02-.09,0-.03.01-.05.02-.08,0-.03.02-.07.03-.1,0-.02.01-.04.02-.06.01-.04.02-.08.04-.12.13-.44.29-.84.47-1.19.2-.4.4-.67.57-.83.02-.02.03-.03.05-.04,0,0,.02-.02.03-.02.11-.1.21-.14.29-.15.08,0,.18.05.29.15,0,0,.02.02.03.02.02.01.03.03.05.04.17.16.36.43.57.83.18.35.33.75.47,1.19.01.04.02.08.04.12,0,.02.01.04.02.06,0,.03.02.07.03.1,0,.03.01.05.02.08,0,.03.02.06.02.09,0,.03.02.06.02.1,0,.03.01.05.02.08,0,.04.02.07.03.11,0,.02.01.05.02.07,0,.04.02.08.03.12,0,.02,0,.04.01.07,0,.04.02.08.02.12,0,.02,0,.05.01.07,0,.04.01.08.02.12.01.06.02.13.03.19l-.34.14ZM19.56,19.36s-.11.05-.19.03l-1.21-.29c-.08-.02-.19.03-.23.1l-.29.57c-.18.41-.54.25-.62.21l-.58-.31v4.27c-.05-.05-.11-.1-.16-.13v-7.03s3.19,2.42,3.19,2.42c.07.05.11.13.09.16ZM19.58,20.58c.05-.08.11-.15.18-.2.14-.09.23-.03.22.14-.01.22-.05,1.29-.05,1.3-.27.04-.36.11-.52.23.01-.31.04-.63.06-.92.01-.19,0-.39.11-.56ZM19.34,20.8c-.01.41-.03.82-.04,1.23,0,.04,0,.1-.02.12-.15.14-.34.3-.51.45.02-.35.05-.72.07-1.04.02-.2.05-.4.09-.6.03-.12.11-.22.23-.28.12-.06.19-.02.19.12ZM18.7,21.43c-.01.38-.04,1.27-.05,1.28-.15.15-.54.46-.55.43.03-.08.05-.17.07-.26.05-.28.06-.58.08-.84.01-.17.07-.35.13-.51.03-.08.11-.14.19-.19.08-.05.15,0,.14.09ZM17.79,25.47c-.09.07-.17.14-.24.22,0,0,0,0,0,.01-.03.04-.06.08-.08.13-.12-.37-.26-.72-.42-1.02-.19-.37-.39-.66-.58-.85.01,0,.13-.1.19-.15.29-.15.59-.26.91-.35.18-.05.53-.17.54-.17.24-.11.41-.26.59-.43.26-.24.54-.44.8-.69.06-.06.11-.09.16-.13,0,0,.02-.01.02-.02.21-.14.4-.04.35.18-.02.06-.05.13-.09.2-.13.25-.4.64-.91,1.16-.03.03-.03.08,0,.1.01.01.03.02.04.02.02,0,.04,0,.06-.02.02-.02.08-.08.16-.17.08-.07.41-.46.5-.59.1-.14.63-.92.25-1.08v-.56s0,0,0,0c0-.1,0-.2.01-.3,0-.19.02-.39.13-.55.05-.07.12-.14.19-.19.11-.06.19-.01.19.11,0,.17,0,.34,0,.51.02.26.06.53.1.79.03.17.04.34.03.51,0,.2-.05.4-.15.59-.08.16-.16.33-.23.5-.09.2-.17.4-.27.59-.25.49-.66.82-1.12,1.07-.03.02-.12.06-.12.06-.4.16-.78.31-1.04.5ZM20.52,25.86c-.12.09-.45.25-.45.25l-1.09.48s0,0,0,0l-.07.03s-.1.03-.08-.07c.05-.2.1-.38.41-.64.04-.04.12-.09.2-.13.05-.03,1.41-.63,1.41-.63,0,0,.1-.03.08.07-.05.2-.1.38-.42.64ZM23.04,24.66c-.12.09-.45.25-.45.25l-1.09.48s0,0,0,0l-.06.03s-.1.03-.08-.07c.05-.2.09-.38.41-.64.04-.04.12-.09.2-.13.05-.03,1.41-.63,1.41-.63,0,0,.1-.03.08.07-.05.2-.1.38-.42.64ZM26.53,12.38l-2.49,9.86-7.75-6.08v-1.39h.02s.18.51.18.51c.03.06.1.09.16.06.06-.03.09-.1.06-.16l-.17-.34.86.58c.06.03.13.01.16-.04.03-.06.01-.13-.04-.16l-.43-.21.99.35c.1.03.21-.03.24-.13.03-.1-.03-.21-.13-.24l-.74-.15.47.03c.11,0,.19-.09.19-.19s-.09-.19-.19-.19l-1.12.08.79-.28c.09-.09.09-.23,0-.32l-1.42-.88s-.1-.06-.15-.06h0s0,0,0,0c0,0,0,0,0,0,0,0,0,0,0,0,0,0,0,0,0,0h0c-.06,0-.11.02-.15.06l-1.42.88c-.09.09-.09.23,0,.32l.79.28-1.12-.08c-.11,0-.19.09-.19.19s.09.19.19.19l.47-.03-.74.15c-.1.03-.16.13-.13.24.03.1.13.16.24.13l.99-.35-.43.21c-.06.03-.08.11-.04.16.03.06.11.08.16.04l.86-.58-.17.34c-.03.06,0,.13.06.16.06.03.13,0,.16-.06l.18-.51h.02s0,1.39,0,1.39l-7.75,6.08-2.49-9.86c-.03-.11-.01-.22.05-.3.06-.09.15-.14.26-.16l9.57-1.35c.17-.02.41-.04.64-.04.23,0,.47.01.64.04l9.57,1.35c.11.02.21.07.26.16.06.09.08.2.05.3Z"/>
        <path class="cls-2" d="M15.93,26.61s.03.07.07.07c.04,0,.07-.03.07-.07,0-.38,0-2.15-.07-2.34-.07.18-.07,1.95-.07,2.34Z"/>
      </g>
    </g>
  </g>
</svg>